Coordinates
version=1
nRows=5
nColumns=63
inDegrees=yes

Units are S.I. units (second, meters, Newtons, ...)
If the header above contains a line with 'inDegrees', this indicates whether rotational values are in degrees (yes) or radians (no).

endheader
time	pelvis_tilt	pelvis_list	pelvis_rotation	pelvis_tx	pelvis_ty	pelvis_tz	hip_flexion_r	hip_adduction_r	hip_rotation_r	knee_angle_r	knee_angle_r_beta	ankle_angle_r	subtalar_angle_r	mtp_angle_r	hip_flexion_l	hip_adduction_l	hip_rotation_l	knee_angle_l	knee_angle_l_beta	ankle_angle_l	subtalar_angle_l	mtp_angle_l	L5_S1_Flex_Ext	L5_S1_Lat_Bending	L5_S1_axial_rotation	L4_L5_Flex_Ext	L4_L5_Lat_Bending	L4_L5_axial_rotation	L3_L4_Flex_Ext	L3_L4_Lat_Bending	L3_L4_axial_rotation	L2_L3_Flex_Ext	L2_L3_Lat_Bending	L2_L3_axial_rotation	L1_L2_Flex_Ext	L1_L2_Lat_Bending	L1_L2_axial_rotation	L1_T12_Flex_Ext	L1_T12_Lat_Bending	L1_T12_axial_rotation	Abs_r3	Abs_r2	Abs_r1	Abs_t1	Abs_t2	neck_flexion	neck_bending	neck_rotation	arm_flex_r	arm_add_r	arm_rot_r	elbow_flex_r	pro_sup_r	wrist_flex_r	wrist_dev_r	arm_flex_l	arm_add_l	arm_rot_l	elbow_flex_l	pro_sup_l	wrist_flex_l	wrist_dev_l
      3.48076923	     -0.63643525	     -4.85072323	    104.13146056	      0.25761121	      0.76623094	      0.74491411	     -7.10405405	      6.14463769	    -12.83918149	      0.25159400	      0.00439114	     11.34363388	    -12.23797613	      0.00000000	     -4.93377859	     -5.41295283	     16.89413869	      0.31832264	      0.00555578	     28.51100950	      0.58976685	      0.00000000	     -0.26931964	      0.38778073	     -1.15499533	     -0.50015350	      0.51574837	     -1.22718253	     -0.44246523	      0.94285007	     -1.22718253	     -0.30780541	      0.94285007	     -1.01062091	     -0.25009022	      0.79076247	     -0.93843370	     -0.15388924	      0.60067235	     -0.86624649	     -1.92372324	      4.38665319	     -6.42373750	      0.00000000	      0.00000000	      0.99878344	      1.91535997	     -0.51896169	     10.90151006	    -12.57779581	     63.65226098	     45.70098816	     29.74856640	     -0.89158360	     20.45273924	     25.11845864	     -4.10066096	    105.09913483	     34.92928790	     88.70814162	    -23.30830223	    -11.17098319
      3.50000000	     -0.57989181	     -4.73445606	    104.26812941	      0.25749961	      0.76686609	      0.74487466	     -7.23635374	      6.28337534	    -12.99814304	      0.23720694	      0.00414004	     10.28103516	    -12.60637381	      0.00000000	     -5.03071829	     -5.51517605	     16.89660255	      0.29801556	      0.00520135	     28.38003035	      0.64869791	      0.00000000	     -0.28981284	      0.39871438	     -1.17941127	     -0.53821142	      0.53029013	     -1.25312448	     -0.47613351	      0.96943415	     -1.25312448	     -0.33122709	      0.96943415	     -1.03198486	     -0.26912020	      0.81305837	     -0.95827166	     -0.16559905	      0.61760858	     -0.88455845	     -2.07010410	      4.51033684	     -6.55953168	      0.00000000	      0.00000000	      0.54700697	      1.74104895	     -0.41495742	     10.69921663	    -12.51779697	     62.91927341	     45.70452557	     29.91757414	     -1.04226061	     19.93034370	     25.06395593	     -4.03892822	    104.95361065	     34.78737404	     88.68223689	    -23.56112384	    -11.01418519
      3.51923077	     -0.42334691	     -4.79277145	    104.37158383	      0.25744918	      0.76682902	      0.74498159	     -7.15894929	      6.48419917	    -11.34311717	      0.22226722	      0.00387929	      8.99068488	    -15.63196524	      0.00000000	     -4.94234332	     -5.68267628	     17.07571871	      0.29111630	      0.00508094	     28.40813330	      0.66152906	      0.00000000	     -0.28419312	      0.41703209	     -1.15808838	     -0.52777505	      0.55465268	     -1.23046890	     -0.46690088	      1.01397182	     -1.23046890	     -0.32480432	      1.01397182	     -1.01332733	     -0.26390173	      0.85041184	     -0.94094681	     -0.16238795	      0.64598271	     -0.86856629	     -2.02996306	      4.71755041	     -6.44094014	      0.00000000	      0.00000000	      0.46780807	      1.53824736	     -0.57473688	      9.93537278	    -12.52453364	     60.60357307	     46.12537509	     32.93356611	     -1.30346835	     20.13799671	     25.13024810	     -3.77491702	    105.47772832	     34.56362607	     88.68740868	    -24.77833527	    -10.68966173
      3.53846154	     -0.33857536	     -4.78004320	    104.52963079	      0.25737046	      0.76691100	      0.74517951	     -7.15229904	      6.61450714	    -11.84266904	      0.21637100	      0.00377639	      8.82649188	    -15.38420970	      0.00000000	     -4.94657895	     -5.80972539	     17.19883296	      0.28451970	      0.00496581	     28.33887013	      0.92958711	      0.00000000	     -0.29025391	      0.42530235	     -1.18221448	     -0.53903053	      0.56565213	     -1.25610289	     -0.47685814	      1.03408014	     -1.25610289	     -0.33173119	      1.03408014	     -1.03443767	     -0.26952978	      0.86727656	     -0.96054927	     -0.16585108	      0.65879334	     -0.88666086	     -2.07325462	      4.81110527	     -6.57512228	      0.00000000	      0.00000000	      0.42789506	      1.45564791	     -0.68162153	      9.92970503	    -12.50123020	     60.26374566	     46.11655222	     33.04219865	     -1.15583909	     20.00206636	     25.14088081	     -3.72794269	    105.43044578	     34.49248542	     88.70140929	    -25.14339302	    -10.37848361
      3.55769231	     -0.31736813	     -4.90581092	    104.31175017	      0.25809350	      0.76661881	      0.74477967	     -7.04729020	      6.59546593	    -12.40649635	      0.20657642	      0.00360544	      9.31594508	    -13.99519219	      0.00000000	     -4.92459330	     -5.85083112	     16.98320322	      0.27209162	      0.00474889	     28.38636890	      1.55296097	      0.00000000	     -0.26077116	      0.41723555	     -1.11715697	     -0.48427811	      0.55492329	     -1.18697928	     -0.42842093	      1.01446653	     -1.18697928	     -0.29803535	      1.01446653	     -0.97751235	     -0.24215210	      0.85082674	     -0.90769004	     -0.14900464	      0.64629787	     -0.83786772	     -1.86266229	      4.71985203	     -6.21329190	      0.00000000	      0.00000000	      0.27495774	      1.50044595	     -0.73941624	      9.89569912	    -12.46907825	     60.44503394	     46.05865860	     33.59831463	     -1.21629867	     19.06248204	     25.19570010	     -3.81325658	    105.48540441	     34.90792590	     88.51465233	    -24.68398734	     -9.03008086
